<svg width="74" height="79" viewBox="0 0 74 79" fill="none" xmlns="http://www.w3.org/2000/svg">
<path fill-rule="evenodd" clip-rule="evenodd" d="M34.9688 0.25038C31.0399 1.19169 28.3996 4.87832 29.0626 8.49734C29.1753 9.11304 29.5009 10.0557 29.786 10.5924C30.0712 11.129 30.2783 11.5877 30.2461 11.6117C30.214 11.6357 29.4307 11.8134 28.5054 12.0066C23.3661 13.0793 17.794 15.6031 13.5871 18.7635C11.9423 19.9993 8.722 23.0685 7.49928 24.5658C1.90535 31.4158 -0.716569 39.8778 0.168675 48.2255C1.42218 60.0473 9.20046 70.3663 20.7667 75.5513C26.8283 78.2687 33.8341 79.442 40.4628 78.8501C58.2037 77.2657 72.1074 64.5063 73.8338 48.2255C74.7564 39.5244 71.8079 30.5625 65.7554 23.6717C63.3062 20.8833 59.6305 17.9312 56.1783 15.9802C53.1991 14.2965 49.0245 12.7441 45.4903 12.0055C44.5687 11.813 43.7906 11.6378 43.7614 11.6163C43.7319 11.5948 43.903 11.2241 44.1412 10.7925C45.7462 7.88596 45.2248 4.62435 42.779 2.27117C40.7429 0.312135 37.8431 -0.438192 34.9688 0.25038ZM35.4229 1.36429C34.3583 1.60977 32.8432 2.43266 32.1076 3.16492C31.73 3.54101 31.1812 4.31295 30.8885 4.88002C30.4055 5.81561 30.356 6.04936 30.356 7.39701C30.356 8.82572 30.3817 8.92901 31.0308 10.0988L31.7056 11.3149L33.0496 11.2595C33.7888 11.2289 34.4205 11.1811 34.4533 11.1531C34.4861 11.1252 34.2353 10.8786 33.8958 10.605C32.8709 9.77922 32.3834 8.73911 32.3829 7.37802C32.3824 5.6109 33.1988 4.3673 34.8983 3.54642C35.5896 3.21247 35.9642 3.14007 37.0012 3.13976C38.9268 3.13929 40.2819 3.88854 41.1764 5.44817C41.5405 6.08286 41.6192 6.42591 41.6192 7.37802C41.6192 8.76798 41.1172 9.80717 40.0351 10.6571L39.3543 11.1919L40.7434 11.2913C42.3463 11.4062 42.2777 11.4479 43.1189 9.84824C43.597 8.93874 43.6464 8.70654 43.6464 7.37C43.6464 5.97819 43.6111 5.82982 43.0181 4.72872C41.8813 2.61777 39.8617 1.37911 37.3796 1.27073C36.6626 1.23939 35.782 1.28154 35.4229 1.36429ZM35.8591 4.45561C35.0574 4.68071 34.0279 5.69149 33.7964 6.48057C33.3936 7.85308 33.992 9.29568 35.2656 10.0222C36.2198 10.5666 37.8627 10.5444 38.8013 9.97437C39.8514 9.33659 40.2818 8.58194 40.2818 7.37802C40.2818 6.18954 39.8523 5.41992 38.8493 4.81086C38.1277 4.37255 36.7411 4.20781 35.8591 4.45561ZM33.3842 12.487C20.2127 13.7345 8.64983 21.7991 3.79714 33.1227C-0.22415 42.5065 0.75194 53.1836 6.42343 61.8539C10.9832 68.8246 18.6315 74.2356 27.0754 76.4651C39.7005 79.7985 52.869 76.6761 62.1686 68.1443C73.7863 57.4857 76.0048 41.1244 67.579 28.2436C60.4802 17.3918 47.0311 11.1945 33.3842 12.487ZM33.1318 15.6258C19.6777 17.2126 8.77315 26.1226 5.62499 38.1013C2.99163 48.1213 6.24409 58.7052 14.1914 65.9767C26.846 77.5555 47.2291 77.5575 59.8059 65.9814C65.0032 61.1978 68.1789 55.1746 69.0519 48.4462C70.2114 39.5079 66.8132 30.5658 59.8059 24.1162C55.016 19.7072 49.0725 16.9063 42.1323 15.7869C40.0393 15.4493 35.3411 15.3653 33.1318 15.6258ZM33.6365 16.8027C31.4107 17.0543 29.5685 17.4347 27.3278 18.1057C15.7861 21.5618 7.56102 30.9324 6.22491 42.148C5.47695 48.4252 7.22691 55.0831 11.0404 60.4703C19.5737 72.5248 36.5973 76.8616 50.5716 70.5409C60.2215 66.176 66.6081 57.7906 67.778 47.9496C68.8793 38.6843 64.6324 29.1832 56.6845 23.1324C52.8212 20.191 47.3814 17.8863 42.4234 17.09C40.163 16.727 35.6192 16.5783 33.6365 16.8027ZM35.1747 19.9341C35.0319 20.0921 34.9885 21.1013 35.0211 23.5144C35.0617 26.5195 35.0977 26.8927 35.3609 27.0451C35.5754 27.1691 35.7353 27.1692 35.9498 27.0452C36.1992 26.901 36.2521 26.5835 36.2963 24.9618L36.3485 23.0484L37.474 25.0555C38.3158 26.5568 38.6879 27.0741 38.9507 27.1085C39.6462 27.1998 39.7022 26.901 39.6543 23.3544C39.6137 20.3493 39.5777 19.9761 39.3144 19.8237C39.0999 19.6998 38.9401 19.6996 38.7256 19.8236C38.4761 19.9678 38.4233 20.2853 38.3791 21.907L38.3269 23.8204L37.2014 21.8133C36.0512 19.7623 35.6591 19.3985 35.1747 19.9341ZM36.5302 31.6479C36.3814 31.7843 36.3283 33.1406 36.3283 36.7908V41.7486L35.8303 42.0864C35.5566 42.2721 35.2716 42.4242 35.1969 42.4242C35.1224 42.4242 34.1174 41.5557 32.9636 40.4943C31.8099 39.4329 30.7473 38.5645 30.6025 38.5645C30.2665 38.5645 29.9354 38.8661 29.9354 39.1721C29.9354 39.3026 30.8948 40.2916 32.0673 41.3702L34.1993 43.3309L33.7917 43.8785L33.3842 44.426L27.9349 44.4672C22.9569 44.5049 22.4695 44.5317 22.3 44.7786C22.1645 44.9756 22.1645 45.1219 22.2998 45.3189C22.4675 45.5632 22.9571 45.5965 27.3996 45.6663L32.3137 45.7435L28.2684 50.8034C26.0435 53.5863 24.144 55.9989 24.0472 56.1649C23.7927 56.6013 24.4126 57.1703 24.8882 56.9367C25.0691 56.8479 27.6981 55.1047 30.7305 53.0629L36.2442 49.3505L36.3283 53.8602C36.4043 57.9371 36.4407 58.3864 36.7068 58.5403C36.9215 58.6644 37.081 58.6644 37.2956 58.5401C37.5646 58.3845 37.5939 57.9363 37.6344 53.3417L37.6787 48.3135L38.2813 47.9718L38.8839 47.63L41.0151 49.5816C42.1874 50.6549 43.2627 51.5331 43.4049 51.5331C43.7383 51.5331 44.067 51.2292 44.067 50.9209C44.067 50.788 43.1207 49.8129 41.9641 48.7541C40.8075 47.6953 39.8612 46.7693 39.8612 46.6966C39.8612 46.6237 40.0193 46.3794 40.2128 46.1539L40.5642 45.7435L46.0406 45.6663C51.0188 45.5961 51.5339 45.5646 51.7026 45.3189C51.8379 45.1219 51.8379 44.9756 51.7026 44.7786C51.5349 44.5343 51.0454 44.501 46.6028 44.4312L41.6887 44.354L45.7341 39.2941C47.9589 36.5112 49.8585 34.0986 49.9552 33.9327C50.2044 33.5055 49.5901 32.927 49.1283 33.1539C48.9552 33.2388 46.3262 34.984 43.2859 37.0322L37.7583 40.7558L37.7135 36.3152C37.6837 33.3534 37.6069 31.8058 37.4827 31.6686C37.2512 31.4126 36.7973 31.4027 36.5302 31.6479ZM42.633 38.9937C40.7801 40.2436 38.5569 41.7429 37.6925 42.3255L36.121 43.3848L37.44 44.6024C38.681 45.748 38.7752 45.804 39.0321 45.5502C39.1822 45.4019 40.7664 43.4393 42.5526 41.1891C44.3387 38.9389 45.8737 37.011 45.9635 36.9048C46.0535 36.7987 46.0988 36.714 46.0643 36.7164C46.03 36.7191 44.4858 37.7439 42.633 38.9937ZM9.57512 41.2707C9.26843 41.6099 10.6989 48.1035 11.1353 48.3527C11.6671 48.6565 11.9941 48.2701 12.3446 46.9235C12.5244 46.232 12.7194 45.6663 12.7778 45.6663C12.8362 45.6663 13.0298 46.2332 13.2083 46.9261C13.5557 48.275 13.8805 48.6588 14.4159 48.3525C14.6366 48.2262 14.8937 47.3589 15.4434 44.8845C16.1912 41.5182 16.2025 41.1752 15.5674 41.0605C15.0395 40.9652 14.8383 41.3424 14.4499 43.1566C14.2369 44.1508 14.0252 44.8618 13.9793 44.7363C13.9335 44.6109 13.7732 44.0625 13.623 43.5175C13.3282 42.4481 12.9694 42.082 12.4884 42.3604C12.3304 42.4518 12.0784 42.9726 11.9282 43.5175C11.778 44.0625 11.6181 44.6095 11.5729 44.7332C11.5278 44.8569 11.3184 44.1621 11.1077 43.1893C10.8971 42.2165 10.6471 41.3339 10.552 41.2277C10.3157 40.9638 9.83335 40.9851 9.57512 41.2707ZM60.0877 41.2155C59.7698 41.5073 59.795 48.0332 60.1152 48.277C60.2708 48.3956 61.0129 48.4407 62.3263 48.4118C63.9936 48.3749 64.3323 48.3258 64.4886 48.0979C64.6235 47.9012 64.6235 47.7543 64.4887 47.5576C64.3385 47.3383 64.0133 47.2791 62.7652 47.2429L61.2268 47.1986V46.2862V45.3738L62.0927 45.327C63.7017 45.2404 63.7017 44.2396 62.0927 44.153L61.2268 44.1062V43.1938V42.2814L62.7652 42.237C64.0133 42.2009 64.3385 42.1416 64.4887 41.9224C64.6235 41.7257 64.6235 41.5787 64.4886 41.382C64.3319 41.1537 63.9926 41.1052 62.2988 41.0688C60.8831 41.0384 60.2338 41.0815 60.0877 41.2155ZM34.2779 45.3795C33.7757 46.0043 32.2035 47.9744 30.784 49.7576C29.3644 51.5408 28.1195 53.1012 28.0177 53.2253C27.9158 53.3493 28.0975 53.2806 28.4213 53.0726C29.6501 52.2834 37.4312 47.0223 37.6311 46.8457C37.7961 46.6998 37.5606 46.4055 36.5155 45.452L35.1907 44.2435L34.2779 45.3795ZM36.1705 63.2399C35.3784 63.6297 34.9422 64.4024 35.0371 65.2468C35.1308 66.0806 35.712 66.6705 36.8949 67.132C37.9797 67.5555 38.3471 67.8508 38.3471 68.2993C38.3471 69.0677 37.0598 69.3856 36.2667 68.8133C35.7642 68.4505 35.3569 68.4676 35.0854 68.8632C34.6862 69.4451 35.7435 70.2375 37.0364 70.3252C38.0833 70.3962 38.824 70.0533 39.3573 69.2505C40.1975 67.9861 39.4684 66.7232 37.5059 66.044C36.706 65.7672 36.3283 65.4459 36.3283 65.0421C36.3283 64.24 37.587 63.92 38.4087 64.513C38.9112 64.8758 39.3185 64.8586 39.59 64.4631C39.826 64.1191 39.6083 63.7771 38.8531 63.3052C38.1597 62.8718 36.977 62.8429 36.1705 63.2399Z" fill="#0B476F"/>
</svg>
