<svg width="79" height="79" viewBox="0 0 79 79" fill="none" xmlns="http://www.w3.org/2000/svg">
<path fill-rule="evenodd" clip-rule="evenodd" d="M2.70731 0.389769C1.7288 0.849223 0.937954 1.60259 0.430842 2.55834L0.0652647 3.24752L0.0207871 19.4073C-0.0293123 37.5645 -0.0933011 36.5549 1.19655 37.966C1.56659 38.3706 2.1701 38.864 2.53799 39.0626C3.20037 39.4202 3.31462 39.4245 14.4503 39.507L25.6937 39.5904L25.639 40.3406C25.5231 41.9287 25.0563 42.5363 21.8164 45.3162L20.254 46.6567L19.5577 46.0097C19.1674 45.6468 18.6191 45.3179 18.3094 45.2609C18.0057 45.2049 14.7378 45.1814 11.0476 45.2089L4.3381 45.2585L3.7131 45.7393C3.36935 46.0037 2.94904 46.5289 2.77907 46.9063C2.48558 47.558 2.47004 48.2557 2.47004 60.7626C2.47004 73.2149 2.48674 73.9691 2.77526 74.5996C3.12844 75.3711 3.67176 75.9194 4.33364 76.1721C4.63572 76.2877 7.17707 76.35 11.5757 76.35C17.0875 76.35 18.4356 76.3062 18.7988 76.1148C19.4008 75.7977 20.0943 75.0378 20.3122 74.4564C20.441 74.1124 20.5475 74.0249 20.6948 74.1421C22.6418 75.6904 26.3772 78.3629 26.9401 78.6101C27.6409 78.9179 28.1985 78.9364 38.0788 78.9806C49.8626 79.0332 49.4307 79.0752 50.9121 77.7324C52.4374 76.3497 52.901 74.6676 52.2718 72.7986L51.9463 71.8312L52.7089 71.4377C54.8714 70.3218 55.8954 67.8818 55.125 65.6806C54.9886 65.2908 54.877 64.9472 54.877 64.9172C54.877 64.8872 55.197 64.7198 55.5882 64.5454C56.6054 64.0918 57.4354 63.2963 57.9248 62.3062C58.5032 61.1357 58.5169 59.4658 57.958 58.2556C57.4986 57.2604 56.2477 56.0892 55.3572 55.8201L54.7277 55.6301L54.9944 55.1121C55.4313 54.2639 55.4761 52.3767 55.0809 51.476C54.6095 50.4012 53.7249 49.4838 52.6125 48.916L51.6528 48.426L45.6564 48.3749L39.6599 48.3237L39.704 43.957L39.748 39.5904H48.5112H57.2745L57.3572 42.9639L57.4399 46.3375L58.0392 46.9415C58.5029 47.4084 58.8099 47.5648 59.3936 47.6312C59.8088 47.6783 60.3337 47.67 60.5602 47.6128C60.7866 47.5555 63.2502 45.7082 66.0348 43.5077L71.0975 39.507L73.2799 39.5054C75.2199 39.504 75.5544 39.4605 76.2891 39.1139C76.7439 38.8994 77.4219 38.3879 77.7959 37.9771C79.0946 36.5508 79.0292 37.5747 78.9791 19.4073L78.9347 3.24752L78.5691 2.55834C78.062 1.60259 77.2711 0.849223 76.2926 0.389769L75.4624 0H39.5H3.5375L2.70731 0.389769ZM3.63191 2.62269C3.32007 2.7829 2.91085 3.12582 2.72252 3.38472C2.38191 3.85301 2.38009 3.9362 2.38009 19.7518C2.38009 35.5675 2.38191 35.6507 2.72252 36.119C2.91085 36.3779 3.32007 36.7211 3.63191 36.8817C4.15754 37.1526 4.98195 37.1707 14.9463 37.1317L25.6937 37.0897L25.7764 34.0056C25.8632 30.7664 25.9048 30.5799 26.7129 29.805C27.718 28.8414 29.1047 28.6182 31.2455 29.0758C34.8883 29.8543 37.9418 32.6219 39.1676 36.2562L39.4489 37.0897L49.1791 37.1327C58.9025 37.1758 58.9098 37.1761 59.2907 37.5368C59.6666 37.8929 59.672 37.9503 59.672 41.5922C59.672 43.6239 59.7185 45.3332 59.7752 45.3904C59.8319 45.4476 59.9994 45.3524 60.1472 45.1789C60.295 45.0053 62.6109 43.133 65.2932 41.0183L70.1702 37.1731H72.4497C75.0393 37.1731 75.6088 37.0187 76.2232 36.15L76.6198 35.5893V19.7223C76.6198 3.93653 76.618 3.85301 76.2774 3.38472C76.0891 3.12599 75.6799 2.7829 75.368 2.62269C74.8335 2.34778 72.7817 2.33111 39.5 2.33111C6.21823 2.33111 4.16647 2.34778 3.63191 2.62269ZM16.2862 8.50523C15.4992 8.74279 14.8778 9.48915 14.0018 11.2496C13.5455 12.1665 13.1621 12.9286 13.1498 12.9431C13.1376 12.9576 12.2718 13.0941 11.226 13.2465C9.0739 13.5601 8.3115 13.9317 7.86226 14.8859C7.54777 15.5542 7.50379 16.6885 7.77198 17.2205C7.873 17.4207 8.58862 18.2326 9.3621 19.0245L10.7687 20.4645L10.5013 22.0459C10.021 24.887 10.2288 25.7938 11.537 26.5641C12.5045 27.1338 13.2965 27.0069 15.3129 25.9593L17.1092 25.0261L18.8382 25.9636C20.2137 26.7095 20.7193 26.9006 21.3116 26.8984C22.2286 26.8951 22.9834 26.5136 23.4898 25.7976C23.9511 25.1456 23.9934 24.0191 23.6388 21.8357L23.4086 20.4187L24.6914 19.1684C26.6176 17.2909 26.9625 16.3548 26.2643 14.9004C25.7311 13.7896 25.1803 13.5407 22.4204 13.1626L20.9658 12.9634L20.0829 11.1896C19.1275 9.27043 18.8901 8.97919 17.9632 8.58859C17.2909 8.30535 16.9972 8.29084 16.2862 8.50523ZM38.2771 8.50523C37.4816 8.74529 36.8556 9.49832 36.0069 11.2366C35.5628 12.1464 35.1812 12.9084 35.1588 12.9301C35.1365 12.9517 34.2627 13.0941 33.2169 13.2465C31.0647 13.5601 30.3023 13.9317 29.8531 14.8859C29.5399 15.5516 29.5004 16.433 29.7532 17.1153C29.8488 17.3734 30.5644 18.2326 31.3433 19.0245L32.7595 20.4645L32.4922 22.0459C32.0118 24.887 32.2197 25.7938 33.5279 26.5641C34.4956 27.134 35.2871 27.0069 37.3057 25.9583L39.1041 25.0239L40.5835 25.8431C42.4894 26.8984 43.0954 27.0729 44.0016 26.8269C44.8785 26.5888 45.7303 25.7059 45.8849 24.8752C45.954 24.5041 45.8785 23.5023 45.6963 22.3715L45.3925 20.4864L46.7282 19.1188C48.671 17.1298 48.9524 16.3525 48.2551 14.9004C47.7219 13.7896 47.1711 13.5407 44.4112 13.1626L42.9567 12.9634L42.0737 11.1896C41.1184 9.27043 40.8809 8.97919 39.954 8.58859C39.2817 8.30535 38.9881 8.29084 38.2771 8.50523ZM60.2679 8.50523C59.4541 8.7508 58.8306 9.51399 57.9913 11.2913C57.5475 12.2312 57.114 13.0001 57.0278 13.0001C56.9417 13.0001 56.069 13.1181 55.0887 13.2623C53.063 13.5602 52.2846 13.9498 51.8439 14.8859C51.5308 15.5516 51.4913 16.433 51.7441 17.1153C51.8396 17.3734 52.5594 18.2368 53.3433 19.0338L54.7687 20.483L54.4923 22.0443C53.9937 24.8575 54.207 25.7918 55.525 26.5676C56.5052 27.145 57.3631 27.0051 59.3397 25.946L61.0741 25.0166L62.7292 25.9025C63.6396 26.3898 64.5917 26.839 64.8451 26.9009C66.0386 27.1918 67.6439 26.121 67.8749 24.8799C67.9419 24.5199 67.8675 23.4843 67.695 22.375L67.4009 20.484L68.8209 19.0208C69.602 18.2161 70.3184 17.3526 70.4128 17.1018C70.8639 15.906 70.278 14.2871 69.2094 13.7758C68.7585 13.5601 65.8141 13.0001 65.1309 13.0001C65.0401 13.0001 64.5644 12.1935 64.0737 11.2079C63.109 9.27026 62.8728 8.97952 61.9448 8.58859C61.2725 8.30535 60.9789 8.29084 60.2679 8.50523ZM15.9076 12.8907C14.7279 15.2788 14.8815 15.1725 12.0099 15.5889C10.9406 15.744 10.022 15.942 9.96875 16.029C9.91534 16.1161 10.6238 16.9143 11.5433 17.8028C13.4651 19.6602 13.3811 19.3711 12.872 22.3794C12.6862 23.4782 12.581 24.4242 12.6384 24.4818C12.6958 24.5393 13.6478 24.116 14.7538 23.5408C15.86 22.9659 16.9139 22.4974 17.0958 22.4999C17.2776 22.5026 17.6497 22.6224 17.9225 22.7663C20.6565 24.209 21.3521 24.5289 21.4759 24.4006C21.5556 24.3179 21.4772 23.4835 21.2977 22.5026C20.7441 19.4778 20.6712 19.7378 22.6251 17.7612C23.5592 16.8161 24.2492 15.9962 24.1583 15.9395C24.0674 15.8828 23.0134 15.6915 21.8162 15.5142C20.6189 15.337 19.5506 15.1175 19.4423 15.0264C19.3339 14.9352 18.8013 13.9545 18.2586 12.8469C17.7161 11.7391 17.1938 10.8328 17.0982 10.8328C17.0025 10.8328 16.4668 11.7589 15.9076 12.8907ZM37.8984 12.8907C36.7187 15.2788 36.8723 15.1725 34.0008 15.5889C32.9315 15.744 32.0188 15.9323 31.9728 16.0075C31.9267 16.0826 32.6342 16.8819 33.5449 17.7838C35.4484 19.6683 35.3687 19.3906 34.8629 22.3794C34.677 23.4782 34.5719 24.4242 34.6292 24.4818C34.6866 24.5393 35.6387 24.116 36.7447 23.5408C37.8508 22.9659 38.9047 22.4974 39.0866 22.4999C39.2685 22.5026 39.6405 22.6224 39.9133 22.7663C42.6493 24.2102 43.3429 24.5289 43.4674 24.4006C43.5479 24.3174 43.4724 23.4895 43.294 22.5026C42.7553 19.5213 42.7128 19.6727 44.623 17.754C45.5311 16.8419 46.2174 16.0387 46.1483 15.969C46.0792 15.8993 45.0342 15.696 43.8264 15.5171C42.6184 15.3384 41.5415 15.1175 41.4332 15.0264C41.3247 14.9352 40.7921 13.9545 40.2495 12.8469C39.707 11.7391 39.1847 10.8328 39.0891 10.8328C38.9933 10.8328 38.4576 11.7589 37.8984 12.8907ZM59.8893 12.8907C58.7095 15.2788 58.8631 15.1725 55.9916 15.5889C54.9223 15.744 54.0139 15.9255 53.9729 15.9922C53.9319 16.059 54.6394 16.8619 55.5452 17.7763C57.4443 19.6938 57.3851 19.4853 56.8578 22.41C56.6555 23.5327 56.588 24.2944 56.6824 24.3896C56.7768 24.4848 57.5776 24.1515 58.7636 23.5235C59.824 22.962 60.8569 22.5026 61.0591 22.5026C61.2613 22.5026 62.3033 22.9612 63.3746 23.5217C64.4477 24.0832 65.3837 24.4763 65.4587 24.3969C65.5338 24.3179 65.4536 23.4278 65.2807 22.4192C64.7714 19.4518 64.7102 19.6662 66.6138 17.754C67.5219 16.8419 68.2083 16.0387 68.1392 15.969C68.07 15.8993 67.0251 15.696 65.8172 15.5171C64.6092 15.3384 63.5323 15.1175 63.424 15.0264C63.3155 14.9352 62.783 13.9545 62.2403 12.8469C61.6978 11.7391 61.1755 10.8328 61.0799 10.8328C60.9842 10.8328 60.4485 11.7589 59.8893 12.8907ZM28.4596 31.4304C28.094 31.6886 28.0912 31.7245 28.0912 36.2307C28.0912 43.0051 28.0695 43.0571 23.6474 46.8875C22.0447 48.2757 20.6786 49.4898 20.6118 49.5857C20.545 49.6814 20.4893 54.5255 20.4878 60.3505L20.4853 70.9411L23.9162 73.5553C25.8468 75.0263 27.6636 76.2818 28.0707 76.4266C28.6912 76.6469 30.174 76.6831 38.4874 76.6808L48.1806 76.6779L48.8264 76.3057C49.7118 75.7952 50.1 75.2154 50.1113 74.3868C50.1234 73.5138 49.6715 72.7274 48.9273 72.3261C48.4277 72.0569 47.9633 72.0156 45.4358 72.0156C42.7371 72.0156 42.4884 71.9899 42.0851 71.67C41.5321 71.2315 41.4894 70.3796 41.9972 69.9158C42.3164 69.6241 42.7199 69.5914 46.9459 69.5149C52.1128 69.4214 52.1497 69.4125 52.7859 68.1215C53.1922 67.2975 53.0376 66.5018 52.3173 65.7087L51.7616 65.0971L47.0213 65.0137C42.2847 64.9304 42.2809 64.93 41.9653 64.5368C41.54 64.0068 41.5651 63.3179 42.0258 62.8815C42.3943 62.5324 42.5296 62.5241 48.5544 62.4774L54.7065 62.4297L55.3106 61.8205C56.4873 60.6337 56.1748 58.8628 54.6669 58.1726C54.0202 57.8765 53.529 57.8522 48.1392 57.8488C42.5339 57.8453 42.2981 57.8323 41.9801 57.5118C41.7964 57.3265 41.6494 56.9561 41.6494 56.6782C41.6494 56.4003 41.7964 56.0299 41.9801 55.8447C42.292 55.5302 42.545 55.5101 46.4031 55.4922C48.6539 55.4817 50.6943 55.4492 50.9372 55.4199C53.1872 55.1481 53.7707 52.4051 51.8234 51.2544L51.1277 50.8433H44.645H38.1622L37.7564 50.4341L37.3505 50.025V44.5465C37.3505 41.3315 37.2764 38.6595 37.1712 38.079C36.7503 35.7552 35.0196 33.3948 32.9278 32.2915C31.1625 31.3602 29.1171 30.9661 28.4596 31.4304ZM5.14961 47.6195C4.98675 47.6858 4.94293 50.4706 4.94293 60.7586C4.94293 72.5094 4.96906 73.8239 5.20451 73.9149C5.34836 73.9706 8.23528 74.0161 11.6199 74.0161C16.1857 74.0161 17.8249 73.9644 17.9721 73.816C18.1229 73.664 18.1705 70.5512 18.1705 60.8245C18.1705 49.4183 18.1424 48.0048 17.9107 47.771C17.6832 47.5418 16.8831 47.5108 11.5036 47.5223C8.12251 47.5295 5.26337 47.5733 5.14961 47.6195ZM9.48247 68.4238C8.9866 68.9236 8.96924 69.3324 9.41931 69.9092C9.75033 70.3336 9.82043 70.3484 11.4861 70.3484C12.9898 70.3484 13.2525 70.3058 13.5409 70.015C13.987 69.5652 13.9635 68.8266 13.4889 68.3769C13.1501 68.056 12.9216 68.0145 11.4972 68.0145C10.0094 68.0145 9.85764 68.0453 9.48247 68.4238Z" fill="#0B476F"/>
</svg>
