<svg width="79" height="79" viewBox="0 0 79 79" fill="none" xmlns="http://www.w3.org/2000/svg">
<path fill-rule="evenodd" clip-rule="evenodd" d="M41.6095 0.0917613C40.7573 0.344946 39.8708 0.964327 39.3166 1.69376L38.7678 2.41657L38.0253 2.00458C36.8856 1.37231 35.2474 1.41637 34.1373 2.10923C33.1851 2.70336 32.5191 3.53832 32.166 4.57996L31.9192 5.308L31.2979 5.06108C30.5588 4.76715 28.9809 4.75862 28.2919 5.04489C27.3699 5.42798 26.477 6.29271 26.0025 7.26243L25.5389 8.20953L25.4947 16.7854L25.4505 25.3613H26.615H27.7795V23.2794V21.1977L28.4171 21.4511C29.7129 21.9663 31.3955 21.6438 32.4149 20.6847L32.9303 20.1999L33.6882 20.7748C34.1051 21.091 34.7368 21.4382 35.0919 21.5465C35.8879 21.7892 37.3035 21.6625 37.94 21.2916L38.4156 21.0144L38.8119 21.7765C39.7634 23.6058 40.7526 24.0942 44.4682 24.5687L47.3269 24.9338L47.3714 26.5405L47.4157 28.1474H48.5689H49.722V25.3613C49.722 23.829 49.6699 22.5753 49.6061 22.5753C49.5423 22.5753 47.8634 22.3752 45.875 22.1305C42.0352 21.6581 41.3618 21.4511 40.8605 20.589C40.7154 20.3394 40.605 19.7996 40.605 19.3396C40.605 18.6305 40.68 18.4449 41.2049 17.8532L41.8049 17.1772L47.3473 17.1798C53.334 17.1826 53.4842 17.2039 53.869 18.1083C53.9826 18.3754 54.2398 20.4496 54.4404 22.7177C54.6411 24.9857 54.8408 27.1624 54.8844 27.5545L54.9633 28.2676L51.5701 32.4291L48.1768 36.5908V38.8118V41.033H39.5234H30.87V38.8663V36.6995L29.3248 33.8066L27.7795 30.9138V29.4435V27.9733H26.6206H25.4616V29.7917V31.6103L27.0069 34.5032L28.5521 37.396V39.2069V41.0177L27.4318 41.0689L26.3115 41.1201L26.27 44.9945L26.2284 48.8689H27.3893H28.5504L28.5898 63.8876L28.6294 78.9063H34.8876H41.1459L41.1913 77.6439L41.2367 76.3814H36.0524H30.8681L30.9077 62.6687L30.9473 48.956H39.5234H48.0995V62.6252V76.2944L45.8203 76.3426L43.541 76.3907V77.6954V79L46.9792 78.9532L50.4174 78.9063L50.4569 63.8876L50.4963 48.8689H51.6574H52.8184L52.7768 44.9945L52.7352 41.1201L51.6149 41.0689L50.4946 41.0177V39.3098V37.6018L53.8925 33.4406C56.4729 30.2805 57.2908 29.1715 57.292 28.8314C57.2946 28.1561 56.3874 18.4661 56.2701 17.9166C56.1062 17.148 55.6559 16.2547 55.1832 15.7605C54.6876 15.2426 53.8702 14.7394 53.5245 14.7394C53.3269 14.7394 53.2872 14.0505 53.2464 9.9073C53.2011 5.31497 53.182 5.03967 52.8585 4.35847C52.3267 3.23829 51.7576 2.57259 50.8995 2.06727C49.8215 1.43239 48.123 1.40279 47.118 2.0011L46.4455 2.40142L45.756 1.5905C45.3766 1.14438 44.7528 0.623206 44.3694 0.432011C43.5868 0.0419598 42.3079 -0.115802 41.6095 0.0917613ZM41.7509 2.79774C41.4888 2.92642 41.1236 3.24735 40.9396 3.51098C40.6125 3.97956 40.605 4.11347 40.605 9.51846V15.0466L41.1845 14.8136C41.5033 14.6854 42.4073 14.5771 43.1933 14.5729L44.6227 14.5653L44.6221 9.47197C44.6216 4.6968 44.6023 4.34315 44.3144 3.81118C43.9496 3.13677 43.1524 2.54926 42.6139 2.55779C42.4014 2.5611 42.0131 2.66923 41.7509 2.79774ZM35.274 4.38946C35.019 4.53469 34.6713 4.86588 34.5013 5.12551C34.2091 5.57181 34.1898 5.91415 34.1478 11.3905C34.1079 16.5594 34.1315 17.2511 34.3672 17.8104C34.7514 18.723 35.4065 19.1292 36.346 19.0376C36.9785 18.9762 37.1944 18.8584 37.6077 18.3503C38.2747 17.5302 38.3221 16.9817 38.2604 10.8133C38.2153 6.29062 38.1804 5.70484 37.9312 5.27648C37.3226 4.23083 36.2065 3.85837 35.274 4.38946ZM48.0639 4.36648C47.7894 4.50596 47.4245 4.87929 47.2532 5.19586C46.9627 5.73305 46.9416 6.06721 46.9412 10.1685L46.9406 14.5653H48.9494H50.9582V10.2935C50.9582 5.65922 50.878 5.10514 50.1272 4.55071C49.5803 4.1469 48.6581 4.06471 48.0639 4.36648ZM29.2246 7.44632C28.957 7.53129 28.5223 7.87764 28.2588 8.21597L27.7795 8.83117L27.7801 13.1348C27.7806 17.0961 27.8047 17.4828 28.0824 17.9958C28.6586 19.061 29.8824 19.3983 30.8238 18.7514C31.7713 18.1005 31.8174 17.8199 31.7661 13.004L31.7199 8.67219L31.3336 8.20726C30.6904 7.43308 30.0237 7.19261 29.2246 7.44632ZM16.2288 26.8141C15.7825 27.0194 15.4175 27.2444 15.4175 27.3142C15.4175 27.384 15.9082 28.8509 16.5079 30.5739L17.5983 33.7067L18.4008 33.3435C18.8423 33.1437 19.329 32.9403 19.4826 32.8918C19.6619 32.8348 19.7291 32.7023 19.6704 32.5214C19.6201 32.3662 19.1167 30.9271 18.5518 29.3228C17.8147 27.2297 17.4562 26.411 17.2823 26.4235C17.149 26.4331 16.6751 26.6088 16.2288 26.8141ZM61.566 26.5385C61.504 26.6515 60.641 29.0557 59.6065 31.9974L59.3242 32.8L60.3497 33.2587C60.9138 33.5108 61.4223 33.659 61.4795 33.5878C61.5368 33.5165 62.0696 32.0718 62.6636 30.377L63.7436 27.2957L62.7575 26.8508C61.6527 26.3525 61.6661 26.356 61.566 26.5385ZM10.5673 32.863C10.2543 33.4551 10.0181 33.9548 10.0424 33.9738C10.5673 34.3837 14.6987 37.1978 14.725 37.1635C14.849 37.0016 15.8811 35.1152 15.8811 35.0501C15.8811 34.9587 11.7034 32.0317 11.3627 31.8844C11.2069 31.817 10.9589 32.1221 10.5673 32.863ZM65.4835 33.2841C64.3362 34.0947 63.3327 34.7837 63.2534 34.8152C63.1021 34.8755 63.999 36.7681 64.2674 36.9549C64.4023 37.0489 67.878 34.796 68.7214 34.0678C69.0172 33.8124 69.0118 33.7845 68.4774 32.8054C68.1769 32.2548 67.8497 31.8055 67.7504 31.8073C67.6509 31.809 66.6309 32.4735 65.4835 33.2841ZM17.8358 38.7779C16.5003 39.0304 15.5305 39.7403 13.8193 41.7175C11.8837 43.9542 11.5045 44.8237 11.4972 47.0405C11.4937 48.1619 11.5736 48.6538 11.9069 49.5637L12.3212 50.6939L11.4558 51.6792L10.5905 52.6646L9.79763 52.2033C9.0879 51.7904 8.83479 51.742 7.38226 51.742C5.8605 51.742 5.70227 51.7762 4.8326 52.2916C3.55963 53.0463 1.04258 55.9441 0.500041 57.2799C-0.621344 60.04 0.20459 63.5658 2.36515 65.2409C4.11221 66.5953 6.38372 66.8374 8.19676 65.8622C9.23779 65.3022 11.4493 63.0246 12.1546 61.786C13.2423 59.8758 13.4395 57.6341 12.7021 55.5569L12.2907 54.3986L13.1276 53.4556L13.9644 52.5127L14.8841 52.9952C15.6734 53.4093 16.0012 53.4781 17.1946 53.4797C18.4346 53.4814 18.6964 53.4224 19.6106 52.935C20.2807 52.5779 21.0458 51.9496 21.8198 51.1213L23.0036 49.8539L22.197 48.9335L21.3904 48.013L20.3384 49.1313C19.7598 49.7463 19.0686 50.3765 18.8026 50.5315C18.1123 50.9339 16.8381 51.0466 16.2234 50.7599L15.7156 50.5231L16.8796 49.222L18.0435 47.9209L17.2371 47.0008L16.4306 46.0807L15.2409 47.4135L14.0511 48.7465L13.8698 47.9878C13.6663 47.1365 13.7615 46.1415 14.1245 45.3245C14.4598 44.5698 16.6117 42.1201 17.2718 41.7416C18.4246 41.0807 19.7431 41.1709 20.8431 41.9857L21.401 42.3989L22.2097 41.4762L23.0184 40.5535L22.5016 40.1166C21.6463 39.3936 20.7629 38.9677 19.7243 38.7779C19.1828 38.6788 18.705 38.6065 18.6626 38.617C18.6201 38.6276 18.248 38.6999 17.8358 38.7779ZM59.2826 38.7725C58.4043 38.9396 57.254 39.5 56.5537 40.102L56.0283 40.5535L56.8371 41.4762L57.6457 42.3989L58.2037 41.9857C59.3036 41.1709 60.6222 41.0807 61.7749 41.7416C62.435 42.1201 64.587 44.5698 64.9223 45.3245C65.2853 46.1415 65.3804 47.1365 65.1769 47.9878L64.9957 48.7465L63.8058 47.4135L62.6161 46.0807L61.8097 47.0008L61.0032 47.9209L62.1671 49.222L63.3311 50.5231L62.8234 50.7599C62.2087 51.0466 60.9345 50.9339 60.2442 50.5315C59.9781 50.3765 59.2869 49.7463 58.7084 49.1313L57.6564 48.013L56.8498 48.9335L56.0431 49.8539L57.227 51.1213C58.001 51.9496 58.766 52.5779 59.4362 52.935C60.3504 53.4224 60.6121 53.4814 61.8522 53.4797C63.0456 53.4781 63.3733 53.4093 64.1626 52.9952L65.0824 52.5127L65.9191 53.4556L66.756 54.3986L66.3393 55.5722C65.6011 57.6517 65.798 59.8645 66.8922 61.786C67.5974 63.0246 69.809 65.3022 70.85 65.8622C73.241 67.1484 76.3511 66.277 77.8849 63.8913C78.7159 62.5987 79.005 61.5478 78.9999 59.8391C78.9934 57.7009 78.5857 56.7998 76.5907 54.5152C74.5257 52.1504 73.7887 51.742 71.5872 51.742C70.2183 51.742 69.9514 51.7946 69.2491 52.2033L68.4563 52.6646L67.5909 51.6792L66.7256 50.6939L67.1351 49.5637C67.6864 48.0418 67.7074 46.1195 67.189 44.6027C66.8881 43.7223 66.5496 43.2396 65.0374 41.5358C63.5493 39.8587 63.0978 39.454 62.393 39.1651C61.3436 38.735 60.2227 38.5935 59.2826 38.7725ZM28.6561 43.7599C28.599 43.8243 28.5521 44.4126 28.5521 45.0671V46.2569H39.5302H50.5082L50.4628 44.9945L50.4174 43.7321L39.5887 43.6873C33.6331 43.6628 28.7135 43.6955 28.6561 43.7599ZM43.541 52.7792V54.0928H44.7067H45.8725L45.8271 52.8303L45.7816 51.5679L44.6613 51.5167L43.541 51.4655V52.7792ZM5.91427 54.5847C5.00613 55.0681 2.70773 57.8341 2.47208 58.7274C1.78352 61.3369 3.39197 63.8364 5.75975 63.8364C6.87372 63.8364 7.72391 63.3243 9.00044 61.8846C10.5403 60.1478 10.888 59.2993 10.8019 57.4883C10.7466 56.3257 10.5588 56.3582 9.31768 57.7464L8.15287 59.0491L7.34548 58.1392L6.53809 57.2294L7.68574 55.9274C8.31698 55.2112 8.78148 54.5666 8.71766 54.4949C8.654 54.4231 8.13618 54.3399 7.56707 54.3101C6.79676 54.2697 6.37445 54.3399 5.91427 54.5847ZM70.5442 54.3869C70.3955 54.4308 70.2738 54.5178 70.2738 54.5804C70.2738 54.6429 70.7766 55.2645 71.3913 55.9617L72.5087 57.2294L71.7013 58.1392L70.8939 59.0491L69.7291 57.7464C68.7855 56.6912 68.5361 56.4932 68.4168 56.7047C68.0879 57.2886 68.1914 58.9935 68.6126 59.926C69.049 60.8919 71.0248 63.0748 71.8397 63.4915C73.6946 64.4399 75.866 63.3844 76.6006 61.1773C76.8168 60.5279 76.8071 59.6078 76.5747 58.7274C76.3369 57.8265 74.0327 55.0596 73.1325 54.5941C72.551 54.2936 71.2227 54.1872 70.5442 54.3869ZM21.4672 57.4242C20.7576 58.8674 20.2361 60.11 20.3082 60.1856C20.3806 60.2613 20.8254 60.5654 21.297 60.8616L22.1545 61.4L23.5055 58.6823C24.2486 57.1878 24.8363 55.945 24.8114 55.921C24.6271 55.7416 23.0123 54.7905 22.8995 54.7949C22.8214 54.7978 22.1769 55.9811 21.4672 57.4242ZM55.1304 55.3363C54.6629 55.6352 54.2545 55.9053 54.2228 55.9363C54.1912 55.9675 54.772 57.2139 55.5136 58.706L56.862 61.4193L57.7346 60.8711C58.2145 60.5697 58.6619 60.2662 58.7286 60.1967C58.8583 60.0618 56.3587 54.9302 56.1212 54.844C56.0436 54.8158 55.5978 55.0373 55.1304 55.3363ZM43.541 58.0031V59.3167H44.7067H45.8725L45.8271 58.0542L45.7816 56.7918L44.6613 56.7406L43.541 56.6894V58.0031Z" fill="#0B476F"/>
</svg>
