<svg width="79" height="79" viewBox="0 0 79 79" fill="none" xmlns="http://www.w3.org/2000/svg">
<path fill-rule="evenodd" clip-rule="evenodd" d="M64.0843 0.390982C63.8322 0.642612 63.6929 0.962723 63.6929 1.29C63.6929 1.72016 63.9426 2.05142 65.3223 3.45179L66.9517 5.1057L60.861 11.1889L54.7705 17.2723L52.4826 15.0065C50.4428 12.9865 50.136 12.7408 49.654 12.7408C49.1559 12.7408 48.6592 13.1938 43.3334 18.5058C40.1545 21.6766 37.5207 24.238 37.4805 24.198C37.3523 24.0698 38.0571 22.569 38.7476 21.5C39.1153 20.9307 40.07 19.7123 40.8688 18.7926C42.8364 16.5275 43.0446 16.0849 43.0421 14.1741C43.0403 12.9011 42.9815 12.5509 42.6709 11.9663C41.4608 9.68855 38.7671 8.66499 36.3554 9.56624C35.6947 9.81309 35.0964 10.2509 33.9614 11.3181C33.1294 12.1005 32.3552 12.7408 32.241 12.7408C31.8108 12.7408 31.358 12.2517 31.2495 11.6696C31.0397 10.5428 30.5001 9.56066 29.693 8.83571C27.9687 7.28723 25.4904 7.26303 23.7674 8.7779C22.9376 9.50747 22.564 10.1459 22.1732 11.5027C21.9294 12.3485 21.5979 12.7408 21.1266 12.7408C21.0309 12.7408 20.2718 12.1005 19.4398 11.3181C18.3048 10.2509 17.7065 9.81309 17.0458 9.56624C14.5303 8.62613 11.7643 9.76388 10.649 12.1974C10.299 12.961 10.2529 13.2512 10.3028 14.3826C10.377 16.0674 10.6721 16.6511 12.5324 18.7926C14.1184 20.6185 15.1364 22.0961 15.6595 23.3315L15.9966 24.1278L15.0901 24.22C13.8987 24.3414 13.1146 24.7316 12.3741 25.5718C10.9813 27.1521 11.0634 29.1442 12.5839 30.6629C13.4065 31.4845 14.2173 31.8519 15.2076 31.8519H15.716L15.1313 32.9632C14.3731 34.4043 13.4386 35.4054 9.30276 39.2071C7.42715 40.9311 5.48873 42.8323 4.99539 43.4318C3.16985 45.6498 1.97159 47.7923 1.11025 50.3784C0.207922 53.0879 0 54.3904 0 57.3334C0 60.2763 0.207922 61.5789 1.11025 64.2884C2.89385 69.6435 6.82459 74.1526 11.9515 76.7245C13.2308 77.3662 15.4559 78.1429 17.2134 78.5609L18.6484 78.9022L48.4292 78.9511L78.2099 79L78.605 78.6054L79 78.2109V62.4297V46.6485L78.6086 46.2577L78.2173 45.8667H64.1918H50.1661L49.2925 44.6325C48.1427 43.0085 47.0173 41.8453 43.3232 38.4624C41.6351 36.9165 40.2538 35.6026 40.2538 35.5424C40.2538 35.4824 42.369 33.3214 44.9545 30.7401L49.6553 26.047L51.9427 28.3125C53.9854 30.3353 54.2884 30.5778 54.7728 30.5778C55.2773 30.5778 55.9664 29.928 64.6027 21.3067L73.8898 12.0356L75.5449 13.6622C76.9463 15.0397 77.2778 15.2889 77.7085 15.2889C78.0361 15.2889 78.3566 15.1497 78.6086 14.8979L79 14.5071V7.64445V0.781805L78.6086 0.390982L78.2173 0H71.3464H64.4756L64.0843 0.390982ZM69.0888 3.56948C70.7156 5.26161 71.2501 4.472 62.6944 13.0175C55.8492 19.8546 55.2787 20.3852 54.7741 20.3852C54.2881 20.3852 53.9875 20.1447 51.9424 18.1194L49.6543 15.8536L41.0083 24.4895L32.3622 33.1252L33.9952 34.7563L35.6282 36.3873L42.3702 29.6603C48.6038 23.4404 49.1528 22.9334 49.6533 22.9334C50.1363 22.9334 50.4415 23.1778 52.4818 25.1983L54.769 27.4633L64.0575 18.1909C74.7792 7.48774 73.7184 8.26142 75.4263 9.89941L76.4488 10.8801V6.71422V2.54815H72.2778H68.1069L69.0888 3.56948ZM25.7439 10.4799C25.1841 10.7868 25.0642 11.0042 24.3911 12.9306C24.027 13.9729 23.587 14.4721 22.6472 14.9092C21.0127 15.6694 19.6612 15.2394 17.8512 13.3837C16.5421 12.0414 16.1144 11.785 15.1884 11.7858C13.8378 11.7869 12.8303 12.8285 12.8291 14.2244C12.8288 14.6461 12.8959 15.1171 12.9782 15.2709C13.0607 15.4246 13.8818 16.4365 14.8031 17.5193C16.6392 19.6778 17.7065 21.4049 18.2531 23.103L18.6087 24.2074H26.7006H34.7925L35.1481 23.103C35.6937 21.4083 36.7505 19.6994 38.5793 17.5555C40.5309 15.2672 40.58 15.1871 40.5985 14.2625C40.6258 12.91 39.5498 11.7852 38.2291 11.7852C37.2856 11.7852 36.8636 12.037 35.55 13.3837C33.74 15.2394 32.3885 15.6694 30.754 14.9092C29.8245 14.4768 29.3752 13.9739 29.0223 12.9704C28.8854 12.5813 28.6621 11.9464 28.526 11.5592C28.1085 10.3718 26.8393 9.87934 25.7439 10.4799ZM14.3361 27.1466C14.0893 27.3929 13.9446 27.7194 13.9446 28.0297C13.9446 28.3399 14.0893 28.6664 14.3361 28.9128L14.7274 29.3037H23.6277H32.528L33.7961 28.0297L35.0642 26.7556H24.8958H14.7274L14.3361 27.1466ZM18.2498 32.0626C18.2498 32.4746 16.8465 35.1323 16.1261 36.0847C15.7233 36.6171 13.6251 38.6875 11.4631 40.6855C7.16326 44.6595 5.95496 46.0414 4.72369 48.393C3.15965 51.3803 2.54402 53.9053 2.54402 57.3334C2.54402 59.8503 2.73041 61.0835 3.44283 63.2806C5.52955 69.7147 10.988 74.5864 17.7714 76.0687C18.9855 76.334 19.9076 76.3649 26.6209 76.3649C32.367 76.3649 34.3754 76.3135 35.2311 76.144C43.0025 74.6065 48.7843 68.9447 50.5636 61.1298C50.9331 59.5073 50.9331 55.1595 50.5636 53.537C49.8094 50.224 48.4205 47.3875 46.3613 44.9546C45.9739 44.4969 44.2439 42.8177 42.5169 41.2232C40.7899 39.6287 39.1448 38.109 38.8613 37.8464L38.3457 37.3686L37.2424 38.4325C35.5556 40.059 35.6956 40.11 32.1665 36.5851C28.9903 33.4126 28.8578 33.1914 29.5823 32.2715L29.9127 31.8519H24.0813C19.3517 31.8519 18.2498 31.8917 18.2498 32.0626ZM24.2323 38.3998C20.4012 38.9571 16.8512 40.7379 14.106 43.4797C7.44118 50.1368 7.08625 60.6127 13.2818 67.8028C15.1325 69.9504 18.1929 71.999 20.9383 72.9279C26.9431 74.9597 33.5931 73.6443 38.4581 69.4621C42.4333 66.0447 44.8235 60.3702 44.506 55.1038C44.3403 52.3561 43.759 50.2814 42.4429 47.7414C39.0407 41.1753 31.5541 37.3349 24.2323 38.3998ZM24.0445 41.006C18.0304 42.0961 13.2796 46.6027 11.7605 52.6586C11.3852 54.1547 11.3877 57.9336 11.7651 59.4616C12.4793 62.3533 13.8054 64.6956 15.9298 66.8173C17.5879 68.4736 19.1511 69.503 21.1996 70.2877C23.2948 71.0904 24.2688 71.2594 26.7803 71.2557C29.1829 71.2522 30.3279 71.0506 32.2579 70.2911C36.1188 68.7719 39.4283 65.4663 40.9493 61.61C41.7086 59.685 41.9057 58.5465 41.9103 56.0593C41.9149 53.5163 41.7242 52.4597 40.8798 50.3478C39.7525 47.5283 37.3067 44.6388 34.6919 43.0373C31.563 41.1209 27.5913 40.3632 24.0445 41.006ZM25.425 43.9373V44.556L24.546 44.6656C23.3495 44.815 21.6317 45.7017 20.8062 46.5963C20.4376 46.9957 19.9089 47.8012 19.6314 48.3862C19.1751 49.3483 19.1268 49.5948 19.1268 50.963C19.1268 52.3312 19.1751 52.5777 19.6314 53.5398C19.9089 54.1248 20.4376 54.9303 20.8062 55.3298C21.6317 56.2243 23.3495 57.1111 24.546 57.2605L25.425 57.37V61.1739C25.425 65.427 25.5129 65.1575 24.2476 64.7842C23.3718 64.5257 22.0509 63.2064 21.7921 62.3316C21.6854 61.971 21.5982 61.2724 21.5982 60.7788V59.8815H20.3005H19.0029L19.0851 61.3246C19.1562 62.5703 19.247 62.928 19.7486 63.9419C20.6811 65.8262 22.5756 67.2072 24.57 67.4561L25.425 67.5626V68.1813V68.8001H26.7006H27.9762V68.1813V67.5626L28.8552 67.4531C30.0517 67.3037 31.7695 66.4169 32.595 65.5224C32.9636 65.1229 33.4923 64.3174 33.7698 63.7324C34.2261 62.7703 34.2744 62.5238 34.2744 61.1556C34.2744 59.7874 34.2261 59.5409 33.7698 58.5788C33.4923 57.9938 32.9636 57.1883 32.595 56.7889C31.7695 55.8943 30.0517 55.0076 28.8552 54.8582L27.9762 54.7486V50.9447C27.9762 46.6399 27.8759 46.9089 29.3012 47.394C30.2032 47.7011 31.3356 48.8845 31.6134 49.8106C31.7177 50.1583 31.803 50.8463 31.803 51.3398V52.2371H33.1007H34.3983L34.3173 50.8159C34.2206 49.1223 33.661 47.7514 32.595 46.5963C31.7695 45.7017 30.0517 44.815 28.8552 44.6656L27.9762 44.556V43.9373V43.3186H26.7006H25.425V43.9373ZM24.1494 47.3489C23.3668 47.5953 22.0321 48.9758 21.7921 49.787C21.3504 51.2803 21.6618 52.4707 22.7887 53.5962C23.2944 54.1012 23.8342 54.4696 24.2476 54.5916C25.5132 54.965 25.425 55.2366 25.425 50.963V47.1408L25.0662 47.157C24.8688 47.166 24.4563 47.2524 24.1494 47.3489ZM51.5753 48.4547C51.5757 48.4765 51.7855 49.032 52.0417 49.6889L52.5076 50.8834L60.9647 50.963C70.5559 51.0533 69.8548 50.9414 70.0889 52.4206C70.3086 53.8087 71.0545 54.5487 72.457 54.7701C73.9773 55.0103 73.8976 54.5863 73.8976 62.4297C73.8976 70.2731 73.9773 69.8491 72.457 70.0893C71.0481 70.3116 70.3086 71.0502 70.086 72.4575C69.8428 73.9938 70.4599 73.8964 60.9835 73.8964H52.7288L51.6335 74.309C49.5521 75.0932 47.1949 75.3595 45.3796 75.0156C44.5683 74.862 44.5529 74.8667 43.3248 75.6527L42.0875 76.4445H59.2681H76.4488V62.4297V48.4149H64.0118C57.1714 48.4149 51.575 48.4329 51.5753 48.4547ZM56.538 53.8118C56.6584 53.9772 56.9488 54.3533 57.1833 54.648C58.5498 56.3633 59.4359 58.5476 59.7428 60.9565C60.1757 64.3531 59.0491 68.0832 56.8297 70.6015L56.1716 71.3482H61.9137H67.6557L68.0453 70.4984C68.5409 69.4169 69.4128 68.5461 70.4956 68.0511L71.3464 67.6618V62.4297V57.1975L70.4956 56.8083C69.4128 56.3133 68.5409 55.4425 68.0453 54.361L67.6557 53.5112H61.9875C56.4609 53.5112 56.3247 53.5187 56.538 53.8118ZM53.4076 57.3093C53.4069 59.6689 53.3471 60.387 53.0357 61.7798C52.171 65.6455 50.5823 68.7459 47.8262 71.9454L47.2431 72.6223L47.6948 72.6196C48.6801 72.6135 50.4466 72.117 51.7287 71.4855C55.0692 69.8408 57.3093 66.2056 57.3093 62.4297C57.3093 60.0749 56.3237 57.4869 54.7455 55.6983C53.3639 54.1323 53.4085 54.0786 53.4076 57.3093ZM27.9762 61.1556C27.9762 65.4811 27.8756 65.2099 29.3012 64.7246C30.6482 64.2661 31.803 62.6189 31.803 61.1556C31.803 59.6923 30.6482 58.0451 29.3012 57.5866C27.8756 57.1014 27.9762 56.8301 27.9762 61.1556Z" fill="#0B476F"/>
</svg>
